<?xml version="1.0" standalone="no"?>
<!DOCTYPE svg PUBLIC "-//W3C//DTD SVG 20010904//EN"
 "http://www.w3.org/TR/2001/REC-SVG-20010904/DTD/svg10.dtd">
<svg version="1.0" xmlns="http://www.w3.org/2000/svg"
 width="300.000000pt" height="300.000000pt" viewBox="0 0 300.000000 300.000000"
 preserveAspectRatio="xMidYMid meet">
<metadata>
Created by potrace 1.10, written by Peter Selinger 2001-2011
</metadata>
<g transform="translate(0.000000,300.000000) scale(0.100000,-0.100000)"
fill="#000000" stroke="none">
<path d="M945 1828 c-4 -24 -13 -38 -22 -38 -12 0 -13 -3 -3 -15 25 -30 -12
-47 -46 -19 -18 14 -18 15 5 8 l24 -6 -22 31 c-26 36 -31 39 -24 12 4 -15 -2
-21 -27 -26 -27 -6 -31 -10 -26 -28 18 -63 19 -77 3 -77 -11 0 -20 15 -27 43
-6 23 -15 51 -21 62 -8 18 -9 17 -4 -6 3 -20 -5 -34 -40 -69 -51 -50 -85 -127
-85 -194 0 -39 3 -45 29 -56 16 -6 41 -25 57 -41 42 -44 6 -37 -54 10 l-49 39
38 -77 c21 -42 54 -91 72 -109 l35 -34 12 54 c7 29 14 56 16 59 6 11 54 -3 54
-15 0 -25 -22 -86 -36 -100 -13 -14 -12 -16 10 -22 22 -5 24 -10 20 -42 -4
-26 -2 -32 4 -22 5 8 13 37 17 63 6 44 9 48 28 43 12 -3 26 -6 30 -6 5 0 6
-13 2 -30 -5 -23 -3 -30 9 -30 11 0 16 -10 17 -27 1 -16 6 1 13 37 7 40 16 65
24 64 44 -4 44 -4 38 -29 -8 -30 -6 -30 44 -5 38 20 120 96 120 112 0 5 12 14
28 20 27 12 26 12 -18 15 -63 4 -90 12 -90 25 0 7 17 9 54 4 l54 -6 6 31 c3
17 6 35 6 40 0 4 -25 -5 -56 -22 -61 -32 -95 -39 -75 -16 6 8 9 16 6 19 -3 2
6 15 20 28 28 27 34 17 8 -13 -17 -18 -16 -18 22 2 22 11 48 21 57 21 16 0 17
6 12 43 -4 23 -15 62 -26 87 -18 43 -20 44 -34 26 -8 -11 -14 -26 -14 -33 0
-7 -4 -13 -10 -13 -5 0 -10 -9 -10 -20 0 -15 -37 -105 -57 -139 -1 -2 -9 -1
-17 2 -14 5 -12 15 11 69 14 35 33 69 42 76 8 6 11 12 7 12 -8 0 9 32 50 96
17 26 17 28 1 15 -15 -12 -20 -11 -40 7 -23 21 -87 56 -124 67 -19 5 -23 2
-23 -17 -2 -142 -13 -200 -37 -185 -9 6 -5 58 16 185 13 75 9 126 -4 60z m118
-113 c40 -28 43 -38 23 -74 -12 -21 -14 -22 -23 -7 -8 14 -14 11 -42 -25 -35
-43 -34 -44 27 -22 13 5 17 -13 5 -20 -5 -3 -22 -8 -39 -11 -29 -7 -30 -6 -32
33 -2 22 2 43 9 47 9 5 10 2 5 -12 -4 -11 3 -7 18 11 23 28 23 30 5 33 -27 5
-26 72 0 72 4 0 23 -11 44 -25z m-180 1 c18 -14 23 -68 10 -116 -6 -22 -8 -19
-21 25 -29 105 -28 120 11 91z m-114 -112 c7 -42 10 -78 7 -81 -3 -4 -18 -1
-32 6 -24 10 -26 10 -19 -6 5 -10 16 -40 26 -68 l18 -50 2 40 c1 22 3 32 6 22
3 -11 2 -35 -2 -55 -6 -35 -8 -36 -21 -17 -8 11 -24 46 -36 78 -20 55 -22 57
-33 37 -20 -38 -26 2 -9 59 13 46 56 111 73 111 4 0 13 -34 20 -76z m65 47 c4
-5 9 -37 12 -70 6 -57 5 -61 -13 -61 -18 0 -22 9 -28 57 -4 31 -9 62 -12 70
-6 15 32 19 41 4z m346 -106 c0 -26 -28 -42 -36 -21 -7 18 14 58 27 51 5 -4 9
-17 9 -30z m-224 -27 c-3 -29 -6 -63 -6 -75 0 -16 -6 -23 -19 -23 -28 0 -30 7
-19 83 9 57 13 67 30 67 19 0 20 -4 14 -52z m54 -38 c-7 -16 -16 -27 -21 -25
-9 6 -2 32 14 53 16 21 21 5 7 -28z m-159 -40 c-3 -63 -11 -80 -39 -80 -10 0
-12 17 -9 73 3 39 5 73 6 75 1 2 11 2 24 0 21 -3 22 -7 18 -68z m209 -22 c0
-24 -36 -128 -48 -140 -9 -9 -15 -9 -24 0 -9 9 -7 26 7 74 10 35 20 66 22 71
7 12 43 8 43 -5z m-114 -23 c-2 -6 -7 -37 -11 -68 -7 -55 -8 -57 -37 -57 -21
0 -29 4 -25 14 3 7 8 35 12 62 9 70 10 72 40 66 15 -2 24 -10 21 -17z m170
-39 c18 -14 18 -16 -13 -47 -18 -18 -35 -30 -38 -27 -8 7 15 88 25 88 3 0 15
-7 26 -14z"/>
<path d="M1230 1520 l0 -80 59 0 c79 0 117 36 76 70 -11 9 -13 16 -5 24 16 16
12 44 -9 56 -11 5 -42 10 -70 10 l-51 0 0 -80z m95 30 c0 -9 -11 -16 -27 -18
-23 -3 -28 1 -28 18 0 17 5 21 28 18 16 -2 27 -9 27 -18z m4 -49 c21 -13 4
-31 -30 -31 -22 0 -29 5 -29 20 0 21 33 28 59 11z"/>
<path d="M1426 1579 c-35 -27 -36 -86 -3 -117 33 -31 90 -30 122 3 75 74 -35
180 -119 114z m94 -40 c9 -16 8 -26 -5 -45 -17 -27 -27 -29 -56 -14 -21 12
-25 50 -7 68 19 19 56 14 68 -9z"/>
<path d="M1591 1583 c7 -10 22 -28 32 -40 19 -22 19 -22 -12 -60 -31 -37 -31
-38 -9 -41 15 -3 29 5 43 22 l21 27 12 -26 c9 -19 19 -25 42 -25 l31 0 -32 40
-33 40 20 28 c36 49 37 52 11 52 -15 0 -28 -9 -37 -26 l-14 -25 -19 25 c-12
16 -28 26 -44 26 -23 0 -24 -2 -12 -17z"/>
<path d="M1750 1570 c0 -23 4 -30 20 -30 11 0 20 4 20 9 0 5 9 11 20 14 26 7
25 -3 -5 -63 -31 -60 -31 -60 -2 -60 20 0 29 11 51 63 39 94 38 97 -39 97
l-65 0 0 -30z"/>
<path d="M1248 1398 c-9 -50 19 -77 49 -47 8 8 13 8 17 0 4 -6 17 -11 30 -11
19 0 22 4 18 30 -3 23 -9 30 -26 29 -20 0 -20 -1 -1 -9 11 -5 15 -9 8 -9 -6
-1 -18 -4 -26 -7 -11 -4 -16 2 -19 18 -4 32 -44 37 -50 6z"/>
<path d="M1474 1383 c1 -34 4 -38 26 -38 33 0 42 44 11 52 -12 3 -21 9 -21 14
0 5 -4 9 -9 9 -4 0 -8 -17 -7 -37z"/>
<path d="M1705 1383 c-15 -36 -12 -60 5 -33 8 13 13 13 31 2 19 -12 21 -12 15
3 -3 9 -9 28 -12 41 -9 34 -21 30 -39 -13z"/>
<path d="M1614 1393 c-12 -13 -18 -13 -24 -4 -12 20 -45 8 -48 -17 -4 -28 24
-40 45 -19 15 15 17 15 28 0 17 -22 45 -9 45 21 0 30 -24 40 -46 19z"/>
<path d="M1798 1403 c-24 -4 -28 -9 -28 -35 0 -17 3 -28 7 -24 4 4 8 15 8 24
0 9 8 18 18 20 13 3 17 -3 17 -22 0 -17 6 -26 15 -26 13 0 13 3 3 21 -11 17
-11 23 0 26 12 5 7 24 -6 22 -4 -1 -19 -4 -34 -6z"/>
<path d="M1381 1368 c2 -31 2 -31 6 -5 6 35 23 35 23 0 0 -14 3 -23 7 -19 4 4
8 15 8 23 0 29 23 25 28 -4 4 -27 4 -27 6 5 1 31 0 32 -39 32 -39 0 -40 -1
-39 -32z"/>
<path d="M1268 1313 c-14 -3 -18 -15 -18 -44 0 -35 2 -39 26 -39 14 0 23 4 19
10 -3 6 -13 10 -21 10 -20 0 -18 18 4 23 16 4 16 5 0 6 -26 2 -22 19 5 23 12
2 18 6 12 9 -5 3 -18 4 -27 2z"/>
<path d="M1377 1303 c-10 -17 6 -73 20 -73 12 0 13 3 3 15 -6 8 -9 23 -5 34 6
19 -9 39 -18 24z"/>
<path d="M1323 1293 c-7 -2 -12 -19 -12 -36 2 -31 2 -31 6 -4 3 16 11 27 20
27 10 0 14 -6 10 -20 -3 -11 -1 -23 5 -26 5 -4 8 7 6 27 -3 33 -13 41 -35 32z"/>
<path d="M1433 1293 c-18 -6 -16 -52 2 -59 8 -3 20 -2 27 2 9 6 6 10 -12 15
-24 7 -24 7 -2 8 12 1 22 5 22 10 0 14 -24 29 -37 24z"/>
<path d="M1538 1292 c-14 -2 -18 -14 -18 -43 0 -21 5 -39 10 -39 6 0 10 4 10
9 0 5 9 11 20 14 39 10 17 68 -22 59z"/>
<path d="M1603 1293 c-7 -3 -13 -18 -13 -34 0 -18 4 -28 10 -24 6 4 7 11 4 17
-4 6 1 17 10 24 18 13 10 25 -11 17z"/>
<path d="M1664 1288 c-4 -6 1 -17 10 -24 16 -12 16 -13 -1 -17 -17 -4 -17 -4
1 -12 25 -11 41 16 19 33 -10 7 -12 12 -4 12 7 0 9 5 6 10 -8 13 -22 13 -31
-2z"/>
<path d="M1727 1293 c-11 -10 -8 -51 3 -58 6 -4 19 -4 28 0 14 7 13 9 -8 15
-24 8 -24 8 -2 9 25 1 30 26 6 35 -19 7 -19 7 -27 -1z"/>
</g>
</svg>
